<svg width="181" height="113" viewBox="0 0 181 113" fill="none" xmlns="http://www.w3.org/2000/svg">
<path d="M46 65.3C46 69.7667 45.5667 73.5667 44.7 76.7C43.8333 79.8333 42.5 82.3667 40.7 84.3C38.9667 86.1667 36.7333 87.5333 34 88.4C31.3333 89.2667 28.1667 89.7 24.5 89.7C22.5 89.7 20.4667 89.5333 18.4 89.2C16.3333 88.9333 14.4333 88.5667 12.7 88.1L13.4 80.7C14.9333 81.1 16.7 81.5 18.7 81.9C20.7 82.2333 23.0667 82.4 25.8 82.4C29.7333 82.4 32.5667 81.1 34.3 78.5C36.1 75.9 37 71.9 37 66.5C37 64.7667 36.8333 63.3333 36.5 62.2C36.2333 61 35.8 60.0333 35.2 59.3C34.6 58.5667 33.8333 58 32.9 57.6C32.0333 57.1333 31.0333 56.7667 29.9 56.5C25.2333 55.5 21.7667 53.8 19.5 51.4C17.2333 49 16.1 45.4 16.1 40.6C16.1 36.4667 16.6 32.9667 17.6 30.1C18.6667 27.2333 20.1333 24.9333 22 23.2C23.8667 21.4667 26.1 20.2333 28.7 19.5C31.3 18.7 34.1667 18.3 37.3 18.3C39.2333 18.3 41.1667 18.5 43.1 18.9C45.0333 19.2333 46.7 19.6 48.1 20L47.4 27.3C45.7333 26.9 43.9 26.5333 41.9 26.2C39.9667 25.8 38 25.6 36 25.6C34.5333 25.6 33.1333 25.8667 31.8 26.4C30.4667 26.8667 29.3 27.7 28.3 28.9C27.3 30.0333 26.5 31.5333 25.9 33.4C25.3 35.2 25 37.4 25 40C25 42.6667 25.5 44.5667 26.5 45.7C27.5 46.8333 29.3 47.6667 31.9 48.2C34.0333 48.6667 35.9667 49.3 37.7 50.1C39.4333 50.8333 40.9 51.8667 42.1 53.2C43.3667 54.4667 44.3333 56.1 45 58.1C45.6667 60.0333 46 62.4333 46 65.3ZM77.1594 89L79.9594 56.8H59.3594L56.5594 89H47.8594L53.9594 19H62.6594L59.9594 49.4H80.5594L83.2594 19H91.9594L85.8594 89H77.1594ZM126.74 53.7C126.94 51.3667 127.107 49.2333 127.24 47.3C127.373 45.3 127.44 43.4333 127.44 41.7C127.44 38.6333 127.24 36.0667 126.84 34C126.44 31.9333 125.807 30.3 124.94 29.1C124.14 27.8333 123.107 26.9333 121.84 26.4C120.573 25.8667 119.04 25.6 117.24 25.6C115.04 25.6 113.14 26.0333 111.54 26.9C109.94 27.7667 108.573 29.2667 107.44 31.4C106.307 33.5333 105.373 36.4 104.64 40C103.907 43.6 103.273 48.1667 102.74 53.7C102.74 54.1 102.707 54.8667 102.64 56C102.573 57.1333 102.507 58.3333 102.44 59.6C102.373 60.8667 102.307 62.0333 102.24 63.1C102.173 64.1667 102.14 64.8667 102.14 65.2C102.14 71.4667 102.94 75.9 104.54 78.5C106.14 81.1 108.707 82.4 112.24 82.4C114.507 82.4 116.44 81.9333 118.04 81C119.64 80 121.007 78.3667 122.14 76.1C123.34 73.8333 124.273 70.9 124.94 67.3C125.673 63.6333 126.273 59.1 126.74 53.7ZM135.74 53.2C135.207 59.3333 134.44 64.7 133.44 69.3C132.44 73.8333 131.04 77.6333 129.24 80.7C127.44 83.7 125.107 85.9667 122.24 87.5C119.44 88.9667 115.907 89.7 111.64 89.7C108.173 89.7 105.273 89.1667 102.94 88.1C100.607 86.9667 98.7398 85.3 97.3398 83.1C95.9398 80.8333 94.9398 78.0333 94.3398 74.7C93.7398 71.3 93.4398 67.3667 93.4398 62.9C93.4398 62.5667 93.4398 61.9667 93.4398 61.1C93.5065 60.1667 93.5732 59.1667 93.6398 58.1C93.7065 57.0333 93.7732 56.0333 93.8398 55.1C93.9065 54.1667 93.9398 53.5333 93.9398 53.2C94.4732 47.3333 95.2065 42.2333 96.1398 37.9C97.0732 33.5 98.4398 29.8667 100.24 27C102.04 24.0667 104.34 21.9 107.14 20.5C110.007 19.0333 113.573 18.3 117.84 18.3C124.64 18.3 129.407 20.3333 132.14 24.4C134.873 28.4667 136.24 34.6333 136.24 42.9C136.24 44.5 136.173 46.1667 136.04 47.9C135.973 49.5667 135.873 51.3333 135.74 53.2ZM169.425 40.2C169.492 39.4667 169.525 38.7667 169.525 38.1C169.592 37.4333 169.625 36.7667 169.625 36.1C169.625 32.5 168.992 29.8333 167.725 28.1C166.458 26.3667 164.292 25.5 161.225 25.5C158.425 25.5 156.158 25.6 154.425 25.8C153.425 25.9333 152.558 26.0333 151.825 26.1L149.325 54.3H158.725C160.125 54.3 161.425 54.1 162.625 53.7C163.825 53.2333 164.892 52.4667 165.825 51.4C166.758 50.2667 167.525 48.8 168.125 47C168.792 45.2 169.225 42.9333 169.425 40.2ZM178.625 36.1C178.625 36.6333 178.592 37.4 178.525 38.4C178.458 39.4 178.392 40.2 178.325 40.8C178.058 44.2667 177.458 47.3333 176.525 50C175.658 52.6 174.358 54.7667 172.625 56.5C170.958 58.1667 168.825 59.4333 166.225 60.3C163.692 61.1667 160.625 61.6 157.025 61.6H148.625L146.325 89H137.625L143.725 19C145.392 18.8667 147.158 18.7333 149.025 18.6C150.625 18.4667 152.425 18.4 154.425 18.4C156.492 18.3333 158.558 18.3 160.625 18.3C163.892 18.3 166.658 18.7333 168.925 19.6C171.192 20.4667 173.025 21.7 174.425 23.3C175.892 24.8333 176.958 26.7 177.625 28.9C178.292 31.1 178.625 33.5 178.625 36.1Z" fill="#252525"/>
<path fill-rule="evenodd" clip-rule="evenodd" d="M69.364 76.0949C62.8567 82.5558 53.8945 86.5474 44 86.5474C24.1177 86.5474 8 70.4297 8 50.5474C8 45.7553 8.93628 41.1818 10.636 37C4.06738 43.5218 0 52.5596 0 62.5474C0 82.4297 16.1177 98.5474 36 98.5474C51.0901 98.5474 64.0117 89.263 69.364 76.0949Z" fill="#CA3B3A"/>
</svg>
