<?xml version="1.0" encoding="utf-8"?>
<!-- Generator: Adobe Illustrator 17.1.0, SVG Export Plug-In . SVG Version: 6.00 Build 0)  -->
<!DOCTYPE svg PUBLIC "-//W3C//DTD SVG 1.1//EN" "http://www.w3.org/Graphics/SVG/1.1/DTD/svg11.dtd">
<svg version="1.1" id="Layer_1" xmlns="http://www.w3.org/2000/svg" xmlns:xlink="http://www.w3.org/1999/xlink" x="0px" y="0px"
	 viewBox="0 0 50 50" enable-background="new 0 0 50 50" xml:space="preserve">
<path d="M42.549,16.701c-1.593,0-2.888,1.296-2.888,2.888c0,0.387,0.079,0.756,0.218,1.094l-8.549,7.957
	c-0.458-0.306-1.007-0.486-1.598-0.486c-0.3,0-0.59,0.049-0.868,0.137l-2.732-3.442c0.204-0.401,0.324-0.841,0.324-1.304
	c0-1.592-1.295-2.888-2.888-2.888s-2.888,1.296-2.888,2.888c0,0.146,0.027,0.286,0.048,0.428l-6.895,5.407
	c-0.447-0.283-0.972-0.454-1.54-0.454c-1.593,0-2.888,1.296-2.888,2.888c0,1.593,1.295,2.889,2.888,2.889s2.888-1.296,2.888-2.889
	c0-0.294-0.057-0.573-0.139-0.84l6.667-5.228c0.018,0.015,0.031,0.035,0.049,0.049c0.511,0.412,1.154,0.639,1.811,0.639
	c0.382,0,0.753-0.075,1.096-0.216l2.627,3.31c-0.28,0.45-0.448,0.965-0.448,1.514c0,1.593,1.295,2.889,2.888,2.889
	c1.592,0,2.888-1.296,2.888-2.889c0-0.266-0.048-0.518-0.115-0.762l8.736-8.13c0.395,0.203,0.835,0.328,1.309,0.328
	c1.592,0,2.888-1.296,2.888-2.888S44.142,16.701,42.549,16.701z M12.293,32.701c-0.49,0-0.888-0.398-0.888-0.889
	c0-0.489,0.398-0.888,0.888-0.888s0.888,0.398,0.888,0.888C13.182,32.303,12.783,32.701,12.293,32.701z M23.013,24.237
	c-0.211-0.171-0.333-0.423-0.333-0.693c0-0.489,0.398-0.888,0.888-0.888s0.888,0.398,0.888,0.888c0,0.237-0.092,0.46-0.259,0.627
	c0,0,0,0,0,0.001s0,0-0.001,0C23.844,24.522,23.225,24.407,23.013,24.237z M29.732,31.93c-0.49,0-0.888-0.398-0.888-0.889
	c0-0.278,0.126-0.533,0.348-0.704c0.004-0.003,0.01-0.004,0.014-0.008c0,0,0.001-0.001,0.001-0.001
	c0.109-0.081,0.284-0.175,0.526-0.175c0.489,0,0.888,0.398,0.888,0.888C30.62,31.531,30.222,31.93,29.732,31.93z M42.549,20.477
	c-0.49,0-0.888-0.398-0.888-0.888s0.398-0.888,0.888-0.888c0.489,0,0.888,0.398,0.888,0.888S43.039,20.477,42.549,20.477z"/>
</svg>
